<svg xmlns="http://www.w3.org/2000/svg" viewBox="0 0 32 32"><title>39-Speech Bubble</title><g id="_39-Speech_Bubble" data-name="39-Speech Bubble"><path d="M21,0H11A11,11,0,0,0,0,11v4A11,11,0,0,0,11,26h1v5a1,1,0,0,0,1.71.71L19.41,26H21A11,11,0,0,0,32,15V11A11,11,0,0,0,21,0Zm9,15a9,9,0,0,1-9,9H19a1,1,0,0,0-.71.29L14,28.59V25a1,1,0,0,0-1-1H11a9,9,0,0,1-9-9V11a9,9,0,0,1,9-9H21a9,9,0,0,1,9,9Z"/><rect x="6" y="12" width="20" height="2"/><rect x="8" y="7" width="16" height="2"/><rect x="8" y="17" width="16" height="2"/></g></svg>